<svg xmlns="http://www.w3.org/2000/svg" xmlns:xlink="http://www.w3.org/1999/xlink" id="Layer_1" width="131" height="98" x="0" y="0" enable-background="new 0 0 131 98" version="1.1" viewBox="0 0 131 98" xml:space="preserve"><g><rect width="125" height="94" x="3.2" y="2" fill="#FFF"/><g><polyline fill="none" stroke="#414042" stroke-miterlimit="10" points="128.2 90.5 128.2 96 122.8 96"/><line x1="112.4" x2="13.9" y1="96" y2="96" fill="none" stroke="#414042" stroke-dasharray="10.364 10.364" stroke-miterlimit="10"/><polyline fill="none" stroke="#414042" stroke-miterlimit="10" points="8.8 96 3.2 96 3.2 90.5"/><line x1="3.2" x2="3.2" y1="78.6" y2="13.4" fill="none" stroke="#414042" stroke-dasharray="11.857 11.857" stroke-miterlimit="10"/><polyline fill="none" stroke="#414042" stroke-miterlimit="10" points="3.2 7.5 3.2 2 8.8 2"/><line x1="19.1" x2="117.6" y1="2" y2="2" fill="none" stroke="#414042" stroke-dasharray="10.364 10.364" stroke-miterlimit="10"/><polyline fill="none" stroke="#414042" stroke-miterlimit="10" points="122.8 2 128.2 2 128.2 7.5"/><line x1="128.2" x2="128.2" y1="19.4" y2="84.6" fill="none" stroke="#414042" stroke-dasharray="11.857 11.857" stroke-miterlimit="10"/></g></g><rect width="77.5" height="63.5" x="50.2" y="32" fill="#E6E7E8"/><line x1="3.2" x2="128.2" y1="32" y2="32" fill="none" stroke="#414042" stroke-dasharray="11" stroke-miterlimit="10"/><line x1="50.2" x2="50.2" y1="32" y2="96" fill="none" stroke="#414042" stroke-dasharray="11" stroke-miterlimit="10"/><rect width="24.5" height="10.5" x="12.2" y="11.5" fill="#B5B5B5"/></svg>