<svg xmlns="http://www.w3.org/2000/svg" xmlns:xlink="http://www.w3.org/1999/xlink" id="Layer_1" width="131" height="98" x="0" y="0" enable-background="new 0 0 131 98" version="1.1" viewBox="0 0 131 98" xml:space="preserve"><g><rect width="125" height="94" x="3" y="2" fill="#FFF"/><g><polyline fill="none" stroke="#414042" stroke-miterlimit="10" points="128 90.5 128 96 122.5 96"/><line x1="112.1" x2="13.7" y1="96" y2="96" fill="none" stroke="#414042" stroke-dasharray="10.364 10.364" stroke-miterlimit="10"/><polyline fill="none" stroke="#414042" stroke-miterlimit="10" points="8.5 96 3 96 3 90.5"/><line x1="3" x2="3" y1="78.6" y2="13.4" fill="none" stroke="#414042" stroke-dasharray="11.857 11.857" stroke-miterlimit="10"/><polyline fill="none" stroke="#414042" stroke-miterlimit="10" points="3 7.5 3 2 8.5 2"/><line x1="18.9" x2="117.3" y1="2" y2="2" fill="none" stroke="#414042" stroke-dasharray="10.364 10.364" stroke-miterlimit="10"/><polyline fill="none" stroke="#414042" stroke-miterlimit="10" points="122.5 2 128 2 128 7.5"/><line x1="128" x2="128" y1="19.4" y2="84.6" fill="none" stroke="#414042" stroke-dasharray="11.857 11.857" stroke-miterlimit="10"/></g></g><rect width="77.6" height="63.4" x="50" y="32" fill="#E6E7E8"/><line x1="50" x2="128" y1="32" y2="32" fill="none" stroke="#414042" stroke-dasharray="11" stroke-miterlimit="10"/><line x1="50" x2="50" y1="2" y2="96" fill="none" stroke="#414042" stroke-dasharray="7" stroke-miterlimit="10"/><rect width="24.5" height="10.5" x="13.7" y="11.8" fill="#B5B5B5"/></svg>